<svg viewBox="0 0 260 180" fill="none" xmlns="http://www.w3.org/2000/svg">
<rect x="47" y="60" width="166" height="60" rx="4" fill="var(--color-contrast-high)"/>
<rect x="90" y="84" width="80" height="12" fill="var(--color-bg)"/>
<circle opacity="0.2" cx="130" cy="87" r="13" fill="var(--color-accent)"/>
<circle opacity="0.1" cx="130" cy="87" r="29" fill="var(--color-accent)"/>
<path d="M133.861 66.4132C131.679 66.585 129.88 67.8975 128.854 69.7346C127.553 68.0806 125.57 67.0658 123.388 67.2375C119.897 67.5123 117.217 70.6504 117.492 74.1415C117.995 80.5417 130.376 89.0808 130.376 89.0808C130.376 89.0808 141.269 78.7101 140.765 72.3098C140.49 68.8187 137.352 66.1385 133.861 66.4132Z" fill="var(--color-accent)"/>
<path opacity="0.92" d="M110.313 48.9513C108.544 48.5591 106.801 49.1628 105.543 50.3691C104.914 48.7444 103.589 47.4607 101.82 47.0684C98.9887 46.4408 96.1064 48.277 95.4787 51.1081C94.328 56.2985 102.065 66.0582 102.065 66.0582C102.065 66.0582 113.202 60.4828 114.353 55.2924C114.98 52.4613 113.144 49.579 110.313 48.9513Z" fill="var(--color-accent)"/>
<path opacity="0.7" d="M128.997 22.1763C127.258 22.0242 125.67 22.8196 124.621 24.1294C123.816 22.6574 122.39 21.5983 120.651 21.4462C117.87 21.2028 115.349 23.3182 115.105 26.0999C114.659 31.1999 123.273 39.5451 123.273 39.5451C123.273 39.5451 133.204 32.8224 133.651 27.7224C133.894 24.9407 131.779 22.4197 128.997 22.1763Z" fill="var(--color-accent)"/>
<path opacity="0.8" d="M148.577 37.7238C146.821 37.9705 145.431 39.1207 144.692 40.6567C143.558 39.3838 141.905 38.6614 140.15 38.9081C137.341 39.3029 135.329 41.9726 135.724 44.7816C136.447 49.9313 146.88 56.223 146.88 56.223C146.88 56.223 155.174 47.2995 154.45 42.1498C154.055 39.3408 151.386 37.329 148.577 37.7238Z" fill="var(--color-accent)"/>
</svg>
